<svg xmlns="http://www.w3.org/2000/svg" viewBox="0 0 64 64" fill="none">
  <defs>
    <linearGradient id="bg-gradient" x1="0%" y1="0%" x2="100%" y2="100%">
      <stop offset="0%" style="stop-color:#0e7490"/>
      <stop offset="100%" style="stop-color:#14b8a6"/>
    </linearGradient>
    <linearGradient id="accent-gradient" x1="0%" y1="0%" x2="100%" y2="100%">
      <stop offset="0%" style="stop-color:#f59e0b"/>
      <stop offset="100%" style="stop-color:#fbbf24"/>
    </linearGradient>
  </defs>
  <!-- Background circle -->
  <circle cx="32" cy="32" r="30" fill="url(#bg-gradient)"/>
  <!-- Book icon -->
  <path d="M18 16v32c0 1.1.9 2 2 2h24c1.1 0 2-.9 2-2V16c0-1.1-.9-2-2-2H20c-1.1 0-2 .9-2 2z" fill="white" fill-opacity="0.9"/>
  <path d="M32 14v36" stroke="url(#bg-gradient)" stroke-width="2"/>
  <path d="M22 22h8M22 28h8M22 34h8" stroke="url(#bg-gradient)" stroke-width="2" stroke-linecap="round"/>
  <path d="M34 22h8M34 28h8M34 34h8" stroke="url(#accent-gradient)" stroke-width="2" stroke-linecap="round"/>
  <!-- IZY text stylized -->
  <circle cx="50" cy="50" r="12" fill="url(#accent-gradient)"/>
  <text x="50" y="55" font-family="Arial Black, sans-serif" font-size="10" font-weight="bold" fill="white" text-anchor="middle">IZY</text>
</svg>
